<svg width="60" height="67" viewBox="0 0 60 67" fill="none" xmlns="http://www.w3.org/2000/svg">
<g clip-path="url(#clip0_53_4598)">
<path d="M49.9115 11.9974H54.3438C57.2174 11.9974 59.4954 14.9923 59.7057 17.7224C60.1122 23.0116 59.3876 28.8321 59.7057 34.1789C59.9019 36.4048 57.1856 39.9021 55.0048 39.9021H43.0334L43.6961 41.9245C45.5004 40.916 47.8597 41.9353 48.1584 44.0495C48.3899 45.6919 48.3369 50.4552 48.0206 52.0634C47.6141 54.1326 45.6789 56.0128 45.5411 57.4913C45.4951 57.9865 45.5835 58.543 45.5464 59.0472C46.3205 58.8636 47.5823 59.3786 47.7678 60.2214C47.9357 60.9814 47.8845 64.4247 47.8014 65.3215C47.7184 66.2184 47.1811 66.7604 46.2745 66.8649C40.3118 66.5443 33.9249 67.2917 28.0134 66.8703C27.2977 66.8199 26.4352 66.4777 26.2603 65.6907C26.103 64.9829 26.1348 61.2803 26.2302 60.4591C26.361 59.3354 27.6352 58.878 28.6143 59.0472C28.8051 55.4761 23.4892 54.6207 23.1852 51.1666C23.0598 49.7331 23.0386 46.641 23.1906 45.2291C23.4168 43.1112 25.5145 41.3698 27.5504 41.2473L27.5557 39.9057H5.66109C3.5121 39.9057 0.730436 36.4012 0.96018 34.1825C1.27829 28.8357 0.55371 23.017 0.96018 17.726C1.16872 15.0067 3.45555 12.001 6.32205 12.001H32.0516C30.2684 4.87673 36.3531 -1.56682 43.4275 0.338513C48.4182 1.68377 51.1345 6.96036 49.9098 11.9974H49.9115ZM38.3695 4.35088C36.0827 4.68044 34.8615 7.35835 35.8353 9.42396C36.187 10.1695 39.4617 13.629 40.1863 14.1567C40.8455 14.6357 41.2166 14.5745 41.844 14.0918C42.7365 13.4075 45.9582 10.0002 46.271 9.03137C47.1104 6.42549 44.9915 3.92407 42.3353 4.34728C41.9359 4.41031 41.054 4.94157 40.9798 4.94697C40.8384 4.95417 40.538 4.64982 40.3241 4.57959C39.642 4.35268 39.0959 4.24643 38.3695 4.35088ZM6.32205 38.6883H27.5539V33.0947C27.5539 32.9831 27.8137 32.1169 27.8844 31.9494C28.7362 29.936 31.5444 29.5524 32.9776 31.112C33.1685 31.3191 33.7711 32.3366 33.7711 32.5563V36.6677C35.8282 35.3855 38.1186 36.3615 38.753 38.6955L54.0752 38.6865C56.4398 38.4128 58.1911 36.7721 58.382 34.3121C58.8009 28.8987 58.0604 22.9306 58.3767 17.4577C57.6345 12.5377 53.0378 13.3337 49.3389 13.3391C46.4601 19.6025 38.2246 20.7353 33.8365 15.3687C33.4795 14.9329 32.8539 13.665 32.6489 13.4777C32.5676 13.4039 32.5005 13.3409 32.3838 13.3445H6.32382C4.03345 13.6668 2.44998 15.3579 2.28209 17.7206C1.89153 23.2313 2.55778 29.2499 2.32274 34.811C2.58076 36.7523 4.44699 38.4614 6.32382 38.6883H6.32205ZM38.6665 41.9911C38.5003 43.3598 38.6665 45.3912 38.6665 46.8445C38.6665 47.2209 37.4753 47.2209 37.4753 46.8445V39.025C37.4753 38.2129 36.346 37.3124 35.5684 37.3484C34.7908 37.3844 33.7711 38.2705 33.7711 39.025V46.8445C33.7711 47.2209 32.58 47.2209 32.58 46.8445V33.2298C32.58 33.0569 32.2018 32.1763 32.0534 32.0142C30.9329 30.7878 28.8316 31.6612 28.8705 33.3595L28.844 48.9767L28.6549 49.3495C28.0222 49.6737 27.6953 49.3405 27.584 48.7012C27.3454 47.3361 27.7978 45.0526 27.69 43.4714C27.6706 43.1743 27.5857 42.8969 27.5468 42.607C25.8273 42.679 24.5761 44.0765 24.3941 45.7856C24.2668 46.9867 24.2368 50.8046 24.6768 51.8005C25.1575 52.8918 27.2994 54.3199 28.2166 55.2042C29.4343 56.3801 29.9256 57.2554 29.9362 59.0472H44.221V57.0933C44.221 56.2541 45.9582 54.0534 46.3611 53.0737C47.4091 50.5255 46.6668 46.7058 46.8065 43.9451C46.271 42.4287 43.9506 42.517 43.7014 44.1612C43.5971 44.8473 43.9665 46.7959 43.2949 47.1236C43.0793 47.2299 42.6958 47.183 42.5332 47.0192C42.1674 46.6446 42.4661 42.7367 42.3689 41.8614C42.1055 39.4663 38.981 39.3924 38.6647 41.9965L38.6665 41.9911Z" fill="white"/>
<path d="M47.4306 31.6468C46.9128 31.1084 47.853 28.3998 47.7788 27.593C47.7258 27.4346 45.7252 25.7489 45.4124 25.2789C44.3167 23.6275 48.2365 24.0219 48.9858 23.6617C49.5708 23.1611 50.4032 20.2851 51.0394 20.2184C51.1931 20.2094 51.331 20.2544 51.467 20.3211C52.0485 20.6074 52.7342 23.107 53.3492 23.6617C53.9606 23.8472 56.7193 23.9427 56.9915 24.3983C57.5588 25.3473 54.9326 26.77 54.5651 27.5984C54.406 28.4485 55.2808 30.7842 55.0033 31.4073C54.9644 31.4937 54.7506 31.7153 54.6676 31.7531C54.1303 31.9908 51.8735 30.3268 51.1701 30.1881C50.64 30.1791 48.7808 31.5712 48.058 31.7603C47.8495 31.8143 47.5826 31.8071 47.4289 31.6486L47.4306 31.6468Z" fill="white"/>
<path d="M12.8982 27.5264C12.771 28.3152 13.8225 31.2578 13.1792 31.6882C12.9831 31.8017 12.8258 31.8143 12.6084 31.7566C11.852 31.5585 10.0954 30.1575 9.50863 30.1971C8.51543 30.4942 7.51693 31.3352 6.59265 31.6846C4.68401 32.4086 6.32403 28.4772 6.10135 27.5966C5.84864 26.734 3.378 25.6553 3.62896 24.4901C3.80745 23.93 6.71283 23.8904 7.31546 23.6581C7.94107 23.0944 8.64091 20.4939 9.29303 20.276C9.44501 20.2256 9.57402 20.1932 9.73484 20.2382C10.2438 20.3841 11.1292 23.1844 11.6788 23.6581C12.6278 23.921 14.0204 23.8238 14.9111 24.1389C16.5459 24.717 13.4761 27.0095 12.8965 27.5246L12.8982 27.5264Z" fill="white"/>
<path d="M27.1265 31.6469C26.9745 31.8053 26.7059 31.8125 26.4973 31.7585C25.771 31.5676 23.9295 30.1629 23.3976 30.1989C22.4291 30.4349 21.1584 31.5406 20.2783 31.7603C20.137 31.7945 20.0239 31.8558 19.886 31.7531C19.78 31.6541 19.6103 31.537 19.552 31.4091C19.2357 30.6978 20.1546 28.5115 19.9885 27.6003C19.605 26.7521 16.8163 25.3384 17.6186 24.3209C17.8802 23.9895 20.6177 23.8508 21.2044 23.6617C21.6003 23.4709 22.415 21.0865 22.8091 20.5786C24.0391 18.9939 24.8927 23.3376 25.5678 23.6617C26.257 23.9049 28.6251 23.8815 29.0864 24.2542C30.1379 25.1043 27.1636 26.9231 26.7801 27.6003C26.6758 28.3999 27.616 31.1372 27.1229 31.6487L27.1265 31.6469Z" fill="white"/>
<path d="M33.5398 31.6467C33.0485 31.1353 33.9887 28.3997 33.8827 27.5983C33.7431 27.1013 31.7478 25.8425 31.4598 25.2067C31.3343 24.9294 31.3202 24.454 31.5764 24.2523L35.0968 23.6598C35.4927 23.4707 36.3074 21.0845 36.7015 20.5767C37.9315 18.9919 38.7851 23.3356 39.4602 23.6598L43.0459 24.3189C43.8359 25.2914 41.033 26.8329 40.676 27.5983C40.5099 28.5096 41.4289 30.6958 41.1126 31.4072C41.056 31.535 40.8846 31.6539 40.7785 31.7512C40.6407 31.8538 40.5276 31.7944 40.3862 31.7584C39.6493 31.5747 37.8484 30.188 37.2776 30.188C36.3074 30.4185 35.0897 31.5152 34.169 31.7566C33.9604 31.8106 33.6936 31.8034 33.5398 31.6449V31.6467Z" fill="white"/>
<path d="M38.3662 5.69456C38.7533 5.61352 39.2145 5.63873 39.5998 5.72337C40.1529 5.84403 40.6266 6.46353 40.9818 6.46353C41.3759 6.46353 41.8265 5.80261 42.3355 5.69456C43.9826 5.34699 45.407 6.54097 45.1419 8.28422C44.9298 9.67991 41.8689 11.8788 40.9836 13.0746C40.1936 11.9508 37.3023 9.8636 36.9418 8.70383C36.5813 7.54406 37.0655 5.97009 38.368 5.69456H38.3662Z" fill="white"/>
</g>
<defs>
<clipPath id="clip0_53_4598">
<rect width="59" height="67" fill="white" transform="translate(0.833252)"/>
</clipPath>
</defs>
</svg>
