<svg width="49" height="48" viewBox="0 0 49 48" fill="none" xmlns="http://www.w3.org/2000/svg">
<g clip-path="url(#clip0_53_4381)">
<path d="M37.91 0.397178C37.91 0.397178 38.15 0.127178 38.2 0.107178H47.85C47.89 0.167178 47.94 0.247178 47.98 0.357178C48.11 0.667178 48.09 0.937178 48.09 1.00718C48.08 1.50718 48.24 7.10718 48.13 7.82718C48.13 7.87718 48.1 8.01718 48.01 8.14718C47.95 8.22718 47.89 8.27718 47.85 8.30718L38.08 8.26718C38.03 8.23718 37.92 8.05718 37.92 8.01718V4.78718H30.54L27.6 7.82718C30.3 9.90718 32.45 12.7772 33.39 16.0772H37.92V12.8472C37.92 12.8472 38.15 12.6172 38.21 12.5572C41.33 12.5272 44.44 12.4972 47.56 12.4772C47.64 12.4772 47.76 12.4772 47.86 12.5572C47.98 12.6372 48.03 12.7772 48.08 13.1872C48.13 13.6072 48.13 13.9272 48.13 14.0172C48.13 14.3072 48.14 14.5872 48.13 14.8772C48.13 15.4772 48.13 19.4172 48.15 20.0872C48.15 20.1672 48.15 20.3872 48.02 20.5972C47.98 20.6572 47.93 20.7072 47.86 20.7572L38.09 20.7172C38.04 20.6872 37.93 20.5072 37.93 20.4672V17.2372H33.78C34.36 19.6772 34.37 22.0272 33.94 24.4872C33.82 25.1772 33.57 25.8372 33.49 26.5372L35.27 29.6772H37.92V26.0572C37.92 26.0572 37.93 25.9272 38.02 25.8472C38.1 25.7772 38.18 25.7672 38.21 25.7672C41.25 25.7272 44.3 25.6972 47.34 25.6572C47.44 25.6472 47.63 25.6372 47.76 25.7472C47.9 25.8672 47.92 26.0672 47.93 26.3172C47.96 26.8972 47.97 27.1872 47.96 27.3272C47.96 27.3872 47.96 27.9072 47.97 28.9472C47.98 30.0872 48.1 32.4972 48.09 33.1372C48.09 33.1372 48.09 33.3272 48.02 33.5772C47.97 33.7572 47.92 33.8172 47.87 33.8672C47.77 33.9472 47.66 33.9572 47.6 33.9672L38.08 33.9272C38.08 33.9272 38 33.8972 37.96 33.8372C37.91 33.7672 37.92 33.6972 37.92 33.6772V30.8272H34.88C34.78 30.8272 34.48 30.6372 34.4 30.5372C33.94 29.9872 33.54 28.6972 33.08 28.0972C33 27.9872 32.98 27.8972 32.81 27.9372C32.42 29.1872 31.62 30.3672 30.83 31.4072V31.5972L32.86 33.6172C33.1 33.3572 33.24 33.1672 33.63 33.2272C33.88 33.2672 35.78 35.2872 36.14 35.6372C36.45 35.9472 36.75 36.2472 37.06 36.5572C38.96 38.4472 41.77 40.8672 43.38 42.8672C45.66 45.7172 42.02 49.7872 38.6 46.8772C35.47 44.2072 32.69 40.6072 29.58 37.8572C28.95 37.0172 29.77 36.9272 29.72 36.6672L27.73 34.6872C27.53 34.6372 26.7 35.3272 26.44 35.4872C13.15 43.6572 -3.06001 31.5272 1.18999 16.5372C3.90999 6.95718 14.47 1.89718 23.73 5.60718C24.79 6.02718 25.73 6.65718 26.75 7.08718L30.14 3.62718H37.9V0.397178H37.91ZM45.61 3.31718C45.93 2.99718 45.68 2.43718 45.2 2.36718C43.83 2.18718 42.08 2.50718 40.66 2.36718C40.1 2.54718 40.1 3.24718 40.66 3.42718C41.36 3.33718 45.3 3.60718 45.6 3.30718L45.61 3.31718ZM45.61 5.91718C45.93 5.59718 45.68 5.03718 45.2 4.96718C43.83 4.78718 42.08 5.10718 40.66 4.96718C40.1 5.14718 40.1 5.84718 40.66 6.02718C41.36 5.93718 45.3 6.20718 45.6 5.90718L45.61 5.91718ZM17.35 5.48718C5.28999 5.51718 -2.27001 18.6572 3.74999 29.1572C9.47999 39.1372 23.87 39.6872 30.37 30.1872C37.53 19.7272 29.99 5.45718 17.34 5.48718H17.35ZM46.98 13.5672H39.07V19.7372H46.98V13.5672ZM45.66 28.7572C45.74 28.5072 45.42 28.2272 45.41 28.2072C45.11 27.9372 44.76 27.9872 43.79 28.0072C42.81 28.0272 43.35 27.9772 41.55 28.0072C41.18 28.0072 40.88 28.0272 40.67 28.0272C40.43 28.0872 40.25 28.3072 40.25 28.5572C40.25 28.8072 40.42 29.0272 40.67 29.0872C42.42 29.2072 43.66 29.1772 44.45 29.1372C44.89 29.1172 45.56 29.0672 45.66 28.7572ZM45.61 30.7572C45.41 30.4872 45.04 30.5672 43.29 30.6272C42.36 30.6572 41.9 30.6672 41.77 30.6472C41.56 30.6172 41.37 30.6272 40.98 30.6472C40.77 30.6472 40.64 30.6672 40.51 30.7572C40.46 30.7872 40.26 30.9372 40.25 31.1772C40.25 31.3972 40.41 31.6172 40.67 31.7072C41.48 31.7072 42.13 31.7172 42.57 31.7372C42.83 31.7372 43.38 31.7372 44.49 31.7172C45.09 31.7072 45.45 31.6972 45.62 31.4472C45.74 31.2672 45.75 30.9672 45.62 30.7672L45.61 30.7572ZM29.97 32.4772L28.57 33.9572C28.59 34.0772 30.18 35.6572 30.34 35.7572C30.43 35.8172 30.49 35.8872 30.61 35.8372L32.03 34.4472L29.97 32.4772ZM35.95 37.1072L33.19 39.8472L34.41 41.0472L37.24 38.3072C37.01 38.1372 36.13 37.0772 35.95 37.1072Z" fill="black"/>
<path d="M16.29 7.51712C27.45 6.68712 34.93 18.6871 29.22 28.3571C23.98 37.2171 10.98 37.2171 5.62999 28.4571C0.279991 19.6971 6.12999 8.27712 16.3 7.52712L16.29 7.51712ZM21.81 18.1971L23.42 17.4371C23.63 17.4071 23.93 17.7471 24.22 17.8571C26.4 18.6771 27.93 15.7471 26.1 14.4371C24.58 13.3471 22.75 14.7071 22.95 16.4471C22.61 16.5071 21.45 17.3071 21.23 17.1871C21.12 17.1371 21.03 16.9371 20.88 16.8571C19.99 16.3671 18.91 16.6671 18.28 17.4071L16.89 16.8971C16.72 15.9671 16.45 15.2371 15.47 14.9471C13.88 14.4671 12.59 15.8571 12.99 17.4371L10.99 18.7671C9.03999 17.3371 6.80999 20.0671 8.40999 21.7271C9.54999 22.9071 11.7 22.1671 11.79 20.5771C11.8 20.3371 11.68 19.8771 11.73 19.7571C11.78 19.6371 12.81 18.9371 13 18.8071C14.06 18.1071 13.63 18.6171 14.55 18.7671C15.38 18.9071 15.93 18.4871 16.55 18.0271L17.91 18.4971C18.06 21.4271 22.22 21.0771 21.81 18.2171V18.1971ZM23.51 19.9471C23.29 20.0071 23.16 20.3371 23.15 20.5571L23.2 28.0371C23.28 28.2271 23.38 28.3771 23.59 28.4171C23.85 28.4671 26.16 28.4671 26.37 28.3971C26.65 28.3071 26.71 27.8571 26.73 27.5971C26.89 25.8671 26.88 22.4771 26.73 20.7371C26.69 20.3171 26.66 19.9971 26.19 19.9271C25.87 19.8771 23.76 19.8671 23.51 19.9371V19.9471ZM16.48 28.2971L16.58 21.0571C16.5 20.8871 16.35 20.7371 16.16 20.6971C15.88 20.6471 13.72 20.6471 13.48 20.7171C13.37 20.7471 13.29 20.8471 13.21 20.9271L13.14 28.0471C13.16 28.1271 13.28 28.2671 13.35 28.3171C13.61 28.4671 16.28 28.4671 16.47 28.2871L16.48 28.2971ZM18.5 22.2671C18.26 22.3371 18.17 22.6571 18.14 22.8771C18.01 23.9771 18.04 26.5871 18.14 27.7071C18.17 28.0171 18.23 28.3571 18.58 28.4271C18.84 28.4771 21.27 28.4571 21.42 28.3771C21.56 28.3071 21.62 28.1471 21.62 27.9971L21.57 22.5471C21.47 22.4071 21.36 22.2871 21.18 22.2571C20.91 22.2071 18.72 22.2071 18.5 22.2771V22.2671ZM8.22999 28.2971C8.39999 28.4671 11.03 28.4771 11.29 28.3671C11.36 28.3371 11.5 28.1971 11.53 28.1271C11.63 27.9071 11.63 24.8271 11.58 24.4171C11.56 24.2071 11.52 24.0171 11.33 23.8971C11.09 23.7471 8.65999 23.7271 8.39999 23.8371C8.32999 23.8671 8.18999 24.0071 8.15999 24.0771C8.04999 24.3271 8.06999 27.3271 8.10999 27.7971C8.11999 27.9771 8.11999 28.1471 8.22999 28.2971Z" fill="black"/>
<path d="M45.61 15.7571C45.31 16.0571 41.37 15.7771 40.67 15.8771C40.11 15.6971 40.11 14.9971 40.67 14.8171C42.08 14.9471 43.84 14.6271 45.21 14.8171C45.68 14.8771 45.94 15.4371 45.62 15.7671L45.61 15.7571Z" fill="black"/>
<path d="M45.61 18.3672C45.31 18.6672 41.37 18.3872 40.67 18.4872C40.11 18.3072 40.11 17.6072 40.67 17.4272C42.08 17.5572 43.84 17.2372 45.21 17.4272C45.68 17.4872 45.94 18.0472 45.62 18.3772L45.61 18.3672Z" fill="black"/>
</g>
<defs>
<clipPath id="clip0_53_4381">
<rect width="47.67" height="47.79" fill="white" transform="translate(0.5 0.107178)"/>
</clipPath>
</defs>
</svg>
