<svg width="50" height="50" viewBox="0 0 50 50" fill="none" xmlns="http://www.w3.org/2000/svg">
<path d="M12.9154 39.3793C14.2921 38.2941 15.3049 36.411 17.2169 36.2211C20.441 35.902 24.1979 36.4387 27.4774 36.2435C28.1051 36.3504 28.8317 37.0308 29.0835 37.6018C29.2049 37.8774 29.2233 38.1873 29.3209 38.4536C29.3591 38.5578 29.2708 38.625 29.4725 38.5842L38.4763 32.7636C41.4446 31.2432 43.9026 34.8352 41.6438 37.1086L27.9389 46.4289C27.1675 46.8851 26.2827 47.0935 25.4124 47.2636L13.0605 47.2741L12.8614 47.3717C12.7915 48.0904 12.1796 48.8829 11.457 49.0306C10.919 49.14 8.90805 49.1176 8.31465 49.053C7.49049 48.9647 6.8338 48.3185 6.68083 47.5247C6.87995 44.592 6.42369 41.3309 6.67951 38.4378C6.75995 37.5332 7.44961 36.8673 8.34102 36.7407C8.95683 36.6523 10.7489 36.6378 11.337 36.7591C12.537 37.0057 13.0196 38.2651 12.9141 39.3806L12.9154 39.3793ZM12.9141 40.8101V46.2878H25.4256C25.9333 46.2878 27.1649 45.7102 27.6436 45.4412L41.0675 36.2844C42.2649 34.7891 40.8737 32.8177 39.0355 33.6141C35.8825 35.633 32.7336 37.6585 29.578 39.6721C28.7209 40.2193 28.0629 40.9696 27.0119 41.0593C24.6093 41.265 21.9219 40.8945 19.4877 41.0593C18.8573 40.9762 18.8059 40.1547 19.5892 40.0663C21.8586 39.8079 24.6159 40.2945 26.9143 40.0729C28.713 39.9002 28.804 37.3736 27.0132 37.2009C23.9117 36.9002 20.2973 37.4158 17.1418 37.2299C15.6965 37.458 14.0627 39.9094 12.9141 40.8087V40.8101Z" fill="black"/>
<path d="M23.0836 7.61894C29.6163 7.52004 33.6988 14.6434 30.4009 20.2609C27.2071 25.7004 19.0921 25.6833 15.9642 20.1989C12.8192 14.6856 16.6895 7.71652 23.085 7.62026L23.0836 7.61894ZM28.0471 21.5136C33.625 16.7322 29.3934 7.57147 22.0894 8.70815C15.9207 9.66813 13.6631 17.5181 18.4512 21.5136C18.4789 19.6939 19.7685 18.221 21.3179 17.4179C19.1698 15.5559 20.4133 12.0008 23.3104 12.0984C26.1192 12.192 27.1794 15.6298 25.0801 17.4179C26.7389 18.2144 27.8321 19.6715 28.0457 21.5136H28.0471Z" fill="black"/>
<path d="M19.046 26.8936C15.4527 25.3613 12.7415 22.3864 11.8936 18.5346C9.74549 8.77387 20.064 1.03466 28.8661 5.83986C36.9916 10.2758 36.7661 21.6704 28.7672 26.2329C28.5113 26.3793 27.6423 26.701 27.5474 26.7934C27.2955 27.0373 27.6872 27.9551 27.0832 28.1133C26.1694 28.3546 26.4846 26.6668 26.5083 26.1498C35.3077 23.2699 36.6158 11.1145 28.3439 6.65742C19.7805 2.04212 10.0106 10.4064 13.2083 19.5922C14.3094 22.7556 16.9137 25.0923 20.0337 26.2039V29.1155H25.9175C25.9716 29.1155 26.4753 29.3067 26.5663 29.3555C27.608 29.9054 27.8164 31.3361 27.0397 32.2091C26.9342 32.3278 26.3052 32.7669 26.2142 32.7669H19.1924C18.9352 32.7669 18.6886 31.9177 19.4943 31.7858L25.9953 31.7594C26.4938 31.5155 26.6863 30.8298 26.3092 30.3999C26.2617 30.3445 25.8463 30.1006 25.8186 30.1006H19.0434V26.8923L19.046 26.8936Z" fill="black"/>
<path d="M36.1278 20.2471C36.4509 20.1522 38.0161 20.5517 38.1177 20.8906C38.5001 22.1605 35.9722 21.2453 35.8746 20.9526C35.7968 20.7192 35.8456 20.3289 36.1278 20.2458V20.2471Z" fill="black"/>
<path d="M31.6747 3.07038C31.9437 2.98731 32.3182 3.16269 32.3828 3.42115C32.4527 3.69675 31.5468 4.9798 31.2541 5.02859C29.7917 5.2765 31.3701 3.16401 31.6747 3.06906V3.07038Z" fill="black"/>
<path d="M7.63685 10.8769C7.93883 10.8478 9.29703 11.287 9.35637 11.6984C9.51066 12.7731 7.30192 11.9305 7.19379 11.5731C7.10016 11.2645 7.30191 10.9098 7.63685 10.8769Z" fill="black"/>
<path d="M37.3174 10.9749C37.9648 10.8813 38.3222 11.4167 37.9385 11.7938C37.8699 11.8611 36.6145 12.2975 36.4866 12.3041C35.9328 12.3345 35.6137 11.7318 36.062 11.4008C36.149 11.3362 37.1736 10.9947 37.3174 10.9736V10.9749Z" fill="black"/>
<path d="M9.22851 21.0943C9.01093 21.3224 7.1991 21.991 7.17537 21.1655C7.03823 20.6301 8.47952 20.2464 8.82105 20.2319C9.24302 20.2134 9.53444 20.7739 9.22851 21.0943Z" fill="black"/>
<path d="M22.3755 0.109941C22.6959 0.0413711 23.0296 0.0769749 23.0981 0.442243C23.1812 0.886632 23.2524 2.28705 22.6405 2.34243C21.8718 2.41364 21.9891 0.241807 22.3755 0.108623V0.109941Z" fill="black"/>
<path d="M13.1818 3.07172C13.7317 2.90952 14.6534 4.26906 14.5967 4.67784C14.5479 5.03388 14.0877 5.13674 13.8042 4.9785C13.555 4.84004 12.4288 3.29457 13.1818 3.07172Z" fill="black"/>
<path d="M30.7397 27.5577C30.9336 27.3652 31.3081 27.3982 31.5098 27.5801C31.6786 27.7318 32.4078 28.825 32.3564 29.0162C32.2364 29.2839 32.0808 29.4579 31.7591 29.4118C31.4373 29.3656 30.3217 27.9705 30.7384 27.5577H30.7397Z" fill="black"/>
<path d="M13.9744 27.4522C14.1538 27.3994 14.3819 27.4166 14.5059 27.5735C14.8738 28.1036 13.7265 29.5528 13.1819 29.3919C12.396 29.1585 13.6527 27.5471 13.9744 27.4522Z" fill="black"/>
</svg>
