<svg fill="none" height="47" viewBox="0 0 48 47" width="48" xmlns="http://www.w3.org/2000/svg"><g fill="#000"><path d="m35.1908 14.0407c.0323.0452.5527-.5746.9892-.4661.3047.0761 2.0325 1.3584 2.5219 1.6425 2.7311 1.5883 5.7515 2.6382 8.861 3.2205.2866.0904.3551.3048.3874.5785.1769 1.5031-.155 3.8649-.4184 5.3848-1.077 6.2138-4.3814 11.9033-9.0547 16.0768-.3112.2777-2.1345 1.764-2.376 1.7872-.4378.0426-1.2719-.9116-1.4411-.8716-.7025 1.1157-1.9202 1.3132-3.1508 1.299-.1743.1214-.0594 1.1144-.1136 1.4334-.1731 1.0292-1.2397 2.0235-2.2598 2.1862-7.3863.244-14.8114.0504-22.21189.0994l-.43646-.1446-6.4410647-7.3811-.0464853-32.53464c.260845-1.8427 1.89306-2.79956 3.67765-2.5568-.15625-1.62963.53719-3.210198 2.21977-3.628583 8.71898-.327993 17.50248-.051652 26.24458-.1407525 1.2604-.116218 3.0462 1.2874355 3.0462 2.5606755v11.4539zm-34.12159-7.49217v31.41377l.14462.1446h4.93023c.81094 0 1.98346 1.6116 1.69033 2.4638l-.38611 4.6888h21.40992c.0426 0 .576-.2505.6612-.3061.3822-.2479.7386-.7631.8135-1.2164.3203-1.9111-.1872-4.5544.0181-6.5456-3.3884-4.3789-5.6908-9.6074-6.1802-15.1807-.0556-.6302-.2273-2.8719-.0259-3.3109.0504-.1085.1343-.1898.2428-.2402 2.039-.3874 4.0354-.9569 5.9555-1.7291l.0168-9.99473c-.0736-.84323-.4481-1.44369-1.2577-1.7394l-26.53776-.04777c-.75929.09297-1.39203.8613-1.49663 1.59735zm45.81059 12.91187c-3.905-.7748-7.6059-2.3515-10.8664-4.6165-3.218 2.2534-6.8775 3.8133-10.736 4.6023-.2324 8.3922 4.0883 16.5765 10.7347 21.5416 5.182-3.8287 8.8778-9.5286 10.2298-15.8508.4041-1.8931.5501-3.7474.6392-5.6779z"/><path d="m4.23188 7.39154c1.60252.10201 3.54078-.2079 5.10456-.02195.49845.0594.58754.24922.63145.72184.18341 1.99507-.14721 4.26387-.00258 6.28997l-.38998.6728-5.48549-.022c-.27763-.1394-.29184-.3706-.31766-.6495-.18595-2.0248.14979-4.3298.00258-6.38554.01033-.30087.15754-.53718.45712-.60562z"/><path d="m4.23196 17.6368c1.57411.0981 3.47363-.2027 5.00771-.0232.51653.0607.68181.3215.727.8187.13943 1.5366.14073 4.6603 0 6.1957-.05036.5501-.17045.674-.72442.7244-1.07566.0981-3.91138.1382-4.93927 0-.42871-.0581-.49586-.328-.53202-.7257-.18336-2.0274.14721-4.3272.00259-6.3856.01033-.3008.15753-.5371.45712-.6056z"/><path d="m4.13469 27.9795 5.53714.0271c.24019.1743.26988.3952.29442.6728.13945 1.5405.13945 4.6552 0 6.1957-.02454.275-.05294.4946-.29442.6728l-5.60429-.0026-.297-.4765c.2079-2.0493-.25956-4.5958 0-6.5831.03228-.2518.133-.3964.36415-.5062z"/><path d="m12.7374 10.6778 14.287-.0233c.8743.0556.8239 1.0951 0 1.1635h-14.0197c-.7064-.0349-.891-.8019-.2673-1.1415z"/><path d="m23.5663 14.0653c.4287.408.0516 1.0343-.5049 1.0408-3.1766-.2738-6.9524.3577-10.0568 0-.8832-.102-.8174-1.0731-.0994-1.1674 3.2838.2221 6.9163-.2776 10.1588 0 .1575.0142.3848.0129.5023.1253z"/><path d="m12.7386 31.2661 11.2925-.0271c.7129.0917.7129.9814 0 1.0731l-11.5172-.093c-.1949-.1536-.1743-.5669-.0878-.7838l.3125-.1705z"/><path d="m12.4985 25.2301c-.4171-.4183.0581-1.1312.6057-1.0408 2.8215.2286 6.1285-.306 8.8919 0 1.0292.1137.9181 1.0705.1989 1.1648-2.9752-.1976-6.2525.2466-9.1916 0-.1498-.0129-.3977-.0168-.5049-.124z"/><path d="m12.8342 17.6375 8.0048-.0232c.851.0774.8936 1.0614 0 1.1647-2.4522.2815-5.4248-.2195-7.9338.0026-.6754-.0736-.7503-.9956-.071-1.1441z"/><path d="m21.3457 35.4755c-.1072.1071-.3538.111-.5049.1239-2.5697.2144-5.43-.1717-8.032 0-.6301-.0826-.6469-.9878.0995-1.0679 2.5116-.2673 5.47.204 8.0293-.0051.4585-.0155.7116.643.4068.9491z"/><path d="m12.8342 20.9239c2.0932.1407 4.6074-.2596 6.6515-.0233.8833.1021.8174 1.0757.0995 1.1674-2.0235.2595-4.5945-.2079-6.68 0-.6754-.0736-.7503-.9956-.071-1.1441z"/><path d="m12.4983 28.9029c-.2699-.2712-.1924-.8807.3112-.9478 1.9512-.2609 4.4718.2079 6.4863 0 .7128.0917.7128.9814 0 1.0731-2.0377-.1395-4.2794.1691-6.2926 0-.1498-.0129-.3977-.0168-.5049-.124z"/><path d="m21.4369 7.39161 5.776-.01807c.758.35123.5307 1.07307-.288 1.15701-1.0227.10589-4.3594.14979-5.3098-.00517-.6689-.10976-.7503-.83031-.1782-1.13377z"/><path d="m12.738 7.39161 5.1962-.01807c.758.35123.5307 1.07307-.288 1.15701-.9207.09556-3.8726.1343-4.73-.00517-.6689-.10976-.7503-.83031-.1782-1.13377z"/><path d="m35.5575 19.6762c4.9845-.3409 8.7977 4.4202 7.487 9.2277-1.534 5.6276-8.8829 7.2275-12.629 2.7195-3.8119-4.5867-.7502-11.543 5.142-11.9472zm3.9475 4.1529c-.1639.0155-.4119.2027-.5475.3099l-4.5893 4.5919c-.1214 0-1.3765-1.5354-1.6632-1.6219-.5824-.1769-.9401.3538-.6495.8419.0826.1395 1.8943 1.9719 2.0183 2.0442.2324.1356.3667.124.6095.0181l5.2879-5.2466c.3396-.3913.0491-.984-.4636-.9362z"/></g></svg>