<svg width="49" height="49" viewBox="0 0 49 49" fill="none" xmlns="http://www.w3.org/2000/svg">
<path d="M33.6255 36.4456C33.3479 36.3876 33.2644 36.0548 33.0717 35.9416C33.4194 40.3092 31.437 44.6539 27.6542 46.9166C21.598 50.5403 13.7239 47.8761 11.2685 41.3011C0.996957 41.2242 -3.83696 28.7278 3.59921 21.6474C1.98207 15.8027 5.36864 9.80719 11.0273 7.89491C13.3533 1.0234 21.3514 -2.0074 27.6542 1.76324C31.4384 4.02724 33.4194 8.37197 33.0717 12.7383C33.2374 12.6601 33.4005 12.2342 33.6255 12.2342H35.492V3.10547C35.492 2.91411 35.9987 2.48826 36.2467 2.5489L41.9848 2.53812C42.4012 1.76594 42.6532 1.13929 43.4281 0.652803C46.7419 -1.42927 50.0948 2.93298 47.5478 5.5797C45.7218 7.47715 42.7772 6.54864 41.997 4.1647H37.1051V12.2342H38.9715C39.1818 12.2342 39.485 12.6695 39.52 12.8959C39.6009 13.4121 39.3933 15.9564 39.6224 16.1221C39.7747 16.2326 39.8583 16.1491 39.985 16.0723C40.6318 15.6774 41.7732 13.873 42.5037 13.8406C42.6788 13.8325 42.8446 13.8649 42.9928 13.9619L46.7689 17.8552C46.7999 17.9778 46.8026 18.1018 46.7864 18.2271C46.7136 18.785 45.0331 20.0464 44.6154 20.6016C44.3755 20.9197 44.3984 21.0665 44.8162 21.1151C45.7016 21.2175 47.0034 20.948 47.8254 21.1312C48.2526 21.2269 48.3712 21.5719 48.4062 21.9627C48.5127 23.1527 48.514 25.5245 48.4062 26.7131C48.3779 27.023 48.3335 27.2872 48.037 27.4529C47.506 27.7507 45.5708 27.4731 44.8162 27.5607C44.3971 27.6092 44.3755 27.7561 44.6154 28.0742C45.0641 28.6685 46.7675 29.8948 46.7958 30.543C46.8039 30.7182 46.7716 30.884 46.6745 31.0322L42.7813 34.8082C42.6586 34.8392 42.5347 34.8419 42.4093 34.8257C41.8514 34.753 40.59 33.0725 40.0348 32.6547C39.7168 32.4149 39.5699 32.4378 39.5214 32.8555C39.4338 33.6102 39.7235 35.633 39.3731 36.137C39.3206 36.2124 39.0281 36.4415 38.9715 36.4415H37.1051V44.5111H41.997C42.7664 42.1366 45.7447 41.1838 47.5478 43.0961C50.1002 45.8035 46.7055 50.0835 43.4281 48.023C42.6532 47.5365 42.4012 46.9099 41.9848 46.1377L36.2467 46.1269C35.9987 46.1862 35.492 45.7617 35.492 45.5703V36.4415C34.9476 36.3634 34.1295 36.548 33.6255 36.4415V36.4456ZM31.4572 14.8581V10.4702C31.4572 9.32609 30.5974 7.27501 29.9856 6.29259C25.9064 -0.26223 16.0809 0.42236 12.9962 7.44346C13.7481 7.45289 14.5068 7.34508 15.2656 7.39495C20.6399 7.75206 24.7272 11.7612 25.68 16.9536C25.7204 17.1773 25.6449 17.6921 25.8592 17.7837L29.6676 13.9269C30.5368 13.5684 30.8508 14.4592 31.4572 14.8594V14.8581ZM21.7732 21.1124V22.7268C15.0189 22.7834 9.61229 16.6059 10.5758 9.91634C8.23233 10.799 6.28906 12.9835 5.42928 15.3095C3.07634 21.6743 7.79031 28.368 14.5109 28.3747V29.9891C10.2241 29.9838 5.99932 27.4058 4.32154 23.433C4.145 23.3979 4.07357 23.5246 3.96846 23.6324C0.711262 26.9934 0.959224 32.8205 3.92264 36.2906C9.78075 43.15 20.966 38.874 20.9673 29.9891H22.5818C22.6155 34.4861 19.7167 38.8012 15.5472 40.4561C14.7157 40.7863 13.8128 40.9237 12.9989 41.2391C15.8464 47.7427 24.6679 48.9245 29.2363 43.4532C30.2093 42.2889 31.4586 39.7257 31.4586 38.211V33.8231C30.8521 34.222 30.5381 35.1128 29.6689 34.7557L25.8552 30.9042C25.812 30.7896 25.7986 30.6697 25.8039 30.5484C25.8322 29.8988 27.5356 28.6752 27.9844 28.0796C28.2243 27.7615 28.2014 27.6146 27.7836 27.5661C27.0276 27.4785 25.0938 27.7561 24.5628 27.4583C24.2663 27.2912 24.2218 27.0284 24.1935 26.7185C24.0493 25.131 24.2933 23.3036 24.2205 21.6918C24.2515 21.5517 24.3418 21.4102 24.4482 21.3145C24.9549 20.8644 27.0977 21.2552 27.8793 21.1151C28.0262 21.0881 28.1461 21.0342 28.1367 20.8631C28.134 20.5181 26.0425 18.9346 25.9118 18.3929L25.7568 18.7015L24.1976 18.6947C24.2205 13.1264 19.427 8.65228 13.86 9.01074C13.612 9.02691 12.6242 9.1455 12.4652 9.2304C12.2253 9.35843 12.1148 10.4621 12.0946 10.7761C11.7348 16.3431 16.2102 21.1366 21.7773 21.1151L21.7732 21.1124ZM33.4517 18.7203C32.3615 18.8538 31.3494 19.6273 30.9343 20.6407C30.8225 20.9129 30.7848 21.3617 30.6958 21.5126C30.6203 21.6406 30.1473 21.8711 29.9937 22.022C28.7404 23.2443 28.7418 25.4382 29.9937 26.6605C30.1473 26.8101 30.6203 27.0406 30.6958 27.1699C30.7848 27.3209 30.8225 27.7683 30.9343 28.0418C31.8224 30.2088 34.6336 30.5996 36.2628 28.9906C38.2223 30.6252 40.7396 30.2452 41.7517 27.8289C41.8393 27.6187 41.8056 27.333 41.8999 27.1713C41.9754 27.0432 42.4848 26.7832 42.6519 26.612C43.8621 25.3789 43.8311 23.2241 42.602 22.0247C42.4484 21.8751 41.9754 21.6447 41.8999 21.5153C41.811 21.3644 41.7732 20.917 41.6614 20.6434C40.7518 18.4252 37.9433 18.1247 36.2615 19.6947C35.4408 18.9629 34.5702 18.5856 33.4503 18.723L33.4517 18.7203Z" fill="black"/>
<path d="M40.0308 21.1161L39.2236 21.3209L39.8731 22.8046C41.2801 22.3734 42.6385 24.062 41.5941 25.2519C41.1359 24.5431 40.586 23.9555 39.7289 23.7399L39.3341 25.1872C40.2033 25.7398 40.6938 26.7195 40.0753 27.6695C39.3031 28.8568 37.3612 28.4808 37.128 27.0955C36.9838 26.237 36.9838 22.4543 37.128 21.5958C37.2722 20.7374 38.1266 20.2132 38.9608 20.3183C39.3287 20.3654 39.9769 20.7158 40.0295 21.1161H40.0308Z" fill="black"/>
<path d="M32.868 23.7359C32.0109 23.9501 31.461 24.5377 31.0029 25.2479C29.9773 24.0836 31.2872 22.3289 32.7238 22.8006L33.3733 21.3169L32.5661 21.112C32.4057 20.8978 33.2628 20.3978 33.4663 20.3506C34.256 20.1647 35.2088 20.6121 35.4217 21.4355C35.5996 22.1228 35.5955 26.2087 35.4823 27.0065C35.2991 28.2949 33.6523 28.8555 32.7143 27.8758C31.8262 26.9486 32.3033 25.8072 33.2588 25.1805L32.868 23.7372V23.7359Z" fill="black"/>
</svg>
